<svg viewBox="0 0 64 64" fill="none" xmlns="http://www.w3.org/2000/svg">
  <defs>
    <linearGradient id="grad" x1="8" y1="4" x2="56" y2="60" gradientUnits="userSpaceOnUse">
      <stop offset="0" stop-color="#10B981"/>
      <stop offset="0.55" stop-color="#0D9488"/>
      <stop offset="1" stop-color="#047857"/>
    </linearGradient>
    <linearGradient id="gradSoft" x1="8" y1="4" x2="56" y2="60" gradientUnits="userSpaceOnUse">
      <stop offset="0" stop-color="#6EE7B7"/>
      <stop offset="1" stop-color="#2DD4BF"/>
    </linearGradient>
  </defs>
  <circle cx="32" cy="32" r="30" fill="url(#grad)"/>
  <circle cx="32" cy="32" r="30" stroke="#FFFFFF" stroke-opacity="0.25" stroke-width="1.5"/>
  <path d="M40.5 12.5a21.5 21.5 0 1 0 0 39 24.5 24.5 0 0 1 0-39Z" fill="#FFFFFF" fill-opacity="0.16"/>
  <g stroke="#FFFFFF" stroke-width="3.4" stroke-linecap="round" fill="none">
    <path d="M32 17.5v27"/>
    <path d="M20.5 25.5c0 8.5 4.5 13 11.5 13"/>
    <path d="M43.5 25.5c0 8.5-4.5 13-11.5 13"/>
    <circle cx="20.5" cy="21.5" r="3.6" fill="#FFFFFF" stroke="none"/>
    <circle cx="43.5" cy="21.5" r="3.6" fill="#FFFFFF" stroke="none"/>
  </g>
  <path d="M47.5 42.5l1.7 3.4 3.8.5-2.75 2.65.65 3.75-3.4-1.8-3.4 1.8.65-3.75-2.75-2.65 3.8-.5z" fill="url(#gradSoft)" stroke="#FFFFFF" stroke-width="0.8" stroke-opacity="0.7"/>
</svg>
